<mxfile host="app.diagrams.net" modified="2023-11-21T14:08:40.804Z" agent="Mozilla/5.0 (Windows NT 10.0; Win64; x64; rv:109.0) Gecko/20100101 Firefox/119.0" etag="SSVEDQiMgb6KUZvMuIsC" version="22.1.3" type="device">
  <diagram name="UseCase" id="lY2ZdImXOUDPBNHHOT2F">
    <mxGraphModel dx="1050" dy="558" grid="1" gridSize="10" guides="1" tooltips="1" connect="1" arrows="1" fold="1" page="1" pageScale="1" pageWidth="827" pageHeight="1169" math="0" shadow="0">
      <root>
        <mxCell id="0" />
        <mxCell id="1" parent="0" />
        <mxCell id="wSTph4jrEaVnRu7Qfcii-2" value="&lt;div&gt;Utilisateur&lt;/div&gt;" style="shape=umlActor;verticalLabelPosition=bottom;verticalAlign=top;html=1;" parent="1" vertex="1">
          <mxGeometry x="30" y="208.46153846153845" width="25.416666666666664" height="43.84615384615385" as="geometry" />
        </mxCell>
        <mxCell id="wSTph4jrEaVnRu7Qfcii-6" value="Visualiser des informations aéronautiques" style="ellipse;whiteSpace=wrap;html=1;" parent="1" vertex="1">
          <mxGeometry x="114.72222222222223" y="223.0769230769231" width="262.6388888888889" height="51.15384615384615" as="geometry" />
        </mxCell>
        <mxCell id="wSTph4jrEaVnRu7Qfcii-7" value="Entrer la date de mise à jour de la BdD souhaitée" style="ellipse;whiteSpace=wrap;html=1;" parent="1" vertex="1">
          <mxGeometry x="114.72222222222223" y="150" width="262.6388888888889" height="51.15384615384615" as="geometry" />
        </mxCell>
        <mxCell id="wSTph4jrEaVnRu7Qfcii-8" value="Sélectionner les couches à afficher" style="ellipse;whiteSpace=wrap;html=1;" parent="1" vertex="1">
          <mxGeometry x="123.19444444444444" y="288.8461538461538" width="254.16666666666666" height="51.15384615384615" as="geometry" />
        </mxCell>
        <mxCell id="wSTph4jrEaVnRu7Qfcii-10" value="Use" style="endArrow=open;endSize=12;dashed=1;html=1;rounded=0;" parent="1" source="wSTph4jrEaVnRu7Qfcii-7" target="wSTph4jrEaVnRu7Qfcii-11" edge="1">
          <mxGeometry width="160" relative="1" as="geometry">
            <mxPoint x="284.16666666666663" y="259.61538461538464" as="sourcePoint" />
            <mxPoint x="428.19444444444446" y="223.0769230769231" as="targetPoint" />
          </mxGeometry>
        </mxCell>
        <mxCell id="wSTph4jrEaVnRu7Qfcii-11" value="Récupérer le tableau de la BdD en question" style="ellipse;whiteSpace=wrap;html=1;" parent="1" vertex="1">
          <mxGeometry x="440" y="193.84615384615384" width="228.75" height="51.15384615384615" as="geometry" />
        </mxCell>
        <mxCell id="wSTph4jrEaVnRu7Qfcii-21" value="" style="endArrow=open;endFill=1;endSize=12;html=1;rounded=0;entryX=0;entryY=0.5;entryDx=0;entryDy=0;exitX=0.5;exitY=0.5;exitDx=0;exitDy=0;exitPerimeter=0;" parent="1" source="wSTph4jrEaVnRu7Qfcii-2" target="wSTph4jrEaVnRu7Qfcii-7" edge="1">
          <mxGeometry width="160" relative="1" as="geometry">
            <mxPoint x="55.416666666666664" y="233.6730769230769" as="sourcePoint" />
            <mxPoint x="190.97222222222223" y="233.6730769230769" as="targetPoint" />
          </mxGeometry>
        </mxCell>
        <mxCell id="wSTph4jrEaVnRu7Qfcii-22" value="" style="endArrow=open;endFill=1;endSize=12;html=1;rounded=0;entryX=0;entryY=0.5;entryDx=0;entryDy=0;exitX=0.5;exitY=0.5;exitDx=0;exitDy=0;exitPerimeter=0;" parent="1" source="wSTph4jrEaVnRu7Qfcii-2" target="wSTph4jrEaVnRu7Qfcii-6" edge="1">
          <mxGeometry width="160" relative="1" as="geometry">
            <mxPoint x="55.416666666666664" y="263.2692307692308" as="sourcePoint" />
            <mxPoint x="127.43055555555556" y="208.46153846153845" as="targetPoint" />
          </mxGeometry>
        </mxCell>
        <mxCell id="wSTph4jrEaVnRu7Qfcii-23" value="" style="endArrow=open;endFill=1;endSize=12;html=1;rounded=0;entryX=0;entryY=0.5;entryDx=0;entryDy=0;exitX=0.5;exitY=0.5;exitDx=0;exitDy=0;exitPerimeter=0;" parent="1" source="wSTph4jrEaVnRu7Qfcii-2" target="wSTph4jrEaVnRu7Qfcii-8" edge="1">
          <mxGeometry width="160" relative="1" as="geometry">
            <mxPoint x="72.36111111111111" y="285.19230769230774" as="sourcePoint" />
            <mxPoint x="144.375" y="303.46153846153845" as="targetPoint" />
          </mxGeometry>
        </mxCell>
      </root>
    </mxGraphModel>
  </diagram>
</mxfile>
